0
SECTION
2
HEADER
9
$INSUNITS
70
4
0
ENDSEC
0
SECTION
2
TABLES
0
TABLE
2
LTYPE
0
LTYPE
72
65
70
64
2
CONTINUOUS
3
______
73
0
40
0
0
ENDTAB
0
TABLE
2
LAYER
0
ENDTAB
0
ENDSEC
0
SECTION
2
ENTITIES
0
CIRCLE
8
0
10
0
20
0
40
2.8
0
CIRCLE
8
0
10
23.75
20
0
40
2.8
0
CIRCLE
8
0
10
42.75
20
0
40
2.8
0
CIRCLE
8
0
10
61.75
20
0
40
2.8
0
CIRCLE
8
0
10
80.75
20
0
40
2.8
0
CIRCLE
8
0
10
99.75
20
0
40
2.8
0
CIRCLE
8
0
10
118.75
20
0
40
2.8
0
CIRCLE
8
0
10
137.75
20
0
40
2.8
0
CIRCLE
8
0
10
156.75
20
0
40
2.8
0
CIRCLE
8
0
10
180.5
20
0
40
2.8
0
CIRCLE
8
0
10
0
20
-19
40
2.8
0
CIRCLE
8
0
10
23.75
20
-19
40
2.8
0
CIRCLE
8
0
10
42.75
20
-19
40
2.8
0
CIRCLE
8
0
10
61.75
20
-19
40
2.8
0
CIRCLE
8
0
10
80.75
20
-19
40
2.8
0
CIRCLE
8
0
10
99.75
20
-19
40
2.8
0
CIRCLE
8
0
10
118.75
20
-19
40
2.8
0
CIRCLE
8
0
10
137.75
20
-19
40
2.8
0
CIRCLE
8
0
10
156.75
20
-19
40
2.8
0
CIRCLE
8
0
10
180.5
20
-19
40
2.8
0
CIRCLE
8
0
10
-4.75
20
-38
40
2.8
0
CIRCLE
8
0
10
14.25
20
-38
40
2.8
0
CIRCLE
8
0
10
33.25
20
-38
40
2.8
0
CIRCLE
8
0
10
52.25
20
-38
40
2.8
0
CIRCLE
8
0
10
71.25
20
-38
40
2.8
0
CIRCLE
8
0
10
90.25
20
-38
40
2.8
0
CIRCLE
8
0
10
109.25
20
-38
40
2.8
0
CIRCLE
8
0
10
128.25
20
-38
40
2.8
0
CIRCLE
8
0
10
147.25
20
-38
40
2.8
0
CIRCLE
8
0
10
166.25
20
-38
40
2.8
0
CIRCLE
8
0
10
185.25
20
-38
40
2.8
0
CIRCLE
8
0
10
37.5
20
-57.95
40
2.8
0
CIRCLE
8
0
10
61.75
20
-57
40
2.8
0
CIRCLE
8
0
10
80.75
20
-61.75
40
2.8
0
CIRCLE
8
0
10
99.75
20
-61.75
40
2.8
0
CIRCLE
8
0
10
118.75
20
-57
40
2.8
0
CIRCLE
8
0
10
143
20
-57.95
40
2.8
0
CIRCLE
8
0
10
5.5
20
0
40
1
0
CIRCLE
8
0
10
29.25
20
0
40
1
0
CIRCLE
8
0
10
48.25
20
0
40
1
0
CIRCLE
8
0
10
67.25
20
0
40
1
0
CIRCLE
8
0
10
86.25
20
0
40
1
0
CIRCLE
8
0
10
105.25
20
0
40
1
0
CIRCLE
8
0
10
124.25
20
0
40
1
0
CIRCLE
8
0
10
143.25
20
0
40
1
0
CIRCLE
8
0
10
162.25
20
0
40
1
0
CIRCLE
8
0
10
186
20
0
40
1
0
CIRCLE
8
0
10
5.5
20
-19
40
1
0
CIRCLE
8
0
10
29.25
20
-19
40
1
0
CIRCLE
8
0
10
48.25
20
-19
40
1
0
CIRCLE
8
0
10
67.25
20
-19
40
1
0
CIRCLE
8
0
10
86.25
20
-19
40
1
0
CIRCLE
8
0
10
105.25
20
-19
40
1
0
CIRCLE
8
0
10
124.25
20
-19
40
1
0
CIRCLE
8
0
10
143.25
20
-19
40
1
0
CIRCLE
8
0
10
162.25
20
-19
40
1
0
CIRCLE
8
0
10
186
20
-19
40
1
0
CIRCLE
8
0
10
0.75
20
-38
40
1
0
CIRCLE
8
0
10
19.75
20
-38
40
1
0
CIRCLE
8
0
10
38.75
20
-38
40
1
0
CIRCLE
8
0
10
57.75
20
-38
40
1
0
CIRCLE
8
0
10
76.75
20
-38
40
1
0
CIRCLE
8
0
10
95.75
20
-38
40
1
0
CIRCLE
8
0
10
114.75
20
-38
40
1
0
CIRCLE
8
0
10
133.75
20
-38
40
1
0
CIRCLE
8
0
10
152.75
20
-38
40
1
0
CIRCLE
8
0
10
171.75
20
-38
40
1
0
CIRCLE
8
0
10
190.75
20
-38
40
1
0
CIRCLE
8
0
10
43
20
-57.95
40
1
0
CIRCLE
8
0
10
67.25
20
-57
40
1
0
CIRCLE
8
0
10
86.25
20
-61.75
40
1
0
CIRCLE
8
0
10
105.25
20
-61.75
40
1
0
CIRCLE
8
0
10
124.25
20
-57
40
1
0
CIRCLE
8
0
10
148.5
20
-57.95
40
1
0
CIRCLE
8
0
10
-5.5
20
0
40
1
0
CIRCLE
8
0
10
18.25
20
0
40
1
0
CIRCLE
8
0
10
37.25
20
0
40
1
0
CIRCLE
8
0
10
56.25
20
0
40
1
0
CIRCLE
8
0
10
75.25
20
0
40
1
0
CIRCLE
8
0
10
94.25
20
0
40
1
0
CIRCLE
8
0
10
113.25
20
0
40
1
0
CIRCLE
8
0
10
132.25
20
0
40
1
0
CIRCLE
8
0
10
151.25
20
0
40
1
0
CIRCLE
8
0
10
175
20
0
40
1
0
CIRCLE
8
0
10
-5.5
20
-19
40
1
0
CIRCLE
8
0
10
18.25
20
-19
40
1
0
CIRCLE
8
0
10
37.25
20
-19
40
1
0
CIRCLE
8
0
10
56.25
20
-19
40
1
0
CIRCLE
8
0
10
75.25
20
-19
40
1
0
CIRCLE
8
0
10
94.25
20
-19
40
1
0
CIRCLE
8
0
10
113.25
20
-19
40
1
0
CIRCLE
8
0
10
132.25
20
-19
40
1
0
CIRCLE
8
0
10
151.25
20
-19
40
1
0
CIRCLE
8
0
10
175
20
-19
40
1
0
CIRCLE
8
0
10
-10.25
20
-38
40
1
0
CIRCLE
8
0
10
8.75
20
-38
40
1
0
CIRCLE
8
0
10
27.75
20
-38
40
1
0
CIRCLE
8
0
10
46.75
20
-38
40
1
0
CIRCLE
8
0
10
65.75
20
-38
40
1
0
CIRCLE
8
0
10
84.75
20
-38
40
1
0
CIRCLE
8
0
10
103.75
20
-38
40
1
0
CIRCLE
8
0
10
122.75
20
-38
40
1
0
CIRCLE
8
0
10
141.75
20
-38
40
1
0
CIRCLE
8
0
10
160.75
20
-38
40
1
0
CIRCLE
8
0
10
179.75
20
-38
40
1
0
CIRCLE
8
0
10
32
20
-57.95
40
1
0
CIRCLE
8
0
10
56.25
20
-57
40
1
0
CIRCLE
8
0
10
75.25
20
-61.75
40
1
0
CIRCLE
8
0
10
94.25
20
-61.75
40
1
0
CIRCLE
8
0
10
113.25
20
-57
40
1
0
CIRCLE
8
0
10
137.5
20
-57.95
40
1
0
CIRCLE
8
0
10
0
20
5.9
40
1
0
CIRCLE
8
0
10
23.75
20
5.9
40
1
0
CIRCLE
8
0
10
42.75
20
5.9
40
1
0
CIRCLE
8
0
10
61.75
20
5.9
40
1
0
CIRCLE
8
0
10
80.75
20
5.9
40
1
0
CIRCLE
8
0
10
99.75
20
5.9
40
1
0
CIRCLE
8
0
10
118.75
20
5.9
40
1
0
CIRCLE
8
0
10
137.75
20
5.9
40
1
0
CIRCLE
8
0
10
156.75
20
5.9
40
1
0
CIRCLE
8
0
10
180.5
20
5.9
40
1
0
CIRCLE
8
0
10
0
20
-13.1
40
1
0
CIRCLE
8
0
10
23.75
20
-13.1
40
1
0
CIRCLE
8
0
10
42.75
20
-13.1
40
1
0
CIRCLE
8
0
10
61.75
20
-13.1
40
1
0
CIRCLE
8
0
10
80.75
20
-13.1
40
1
0
CIRCLE
8
0
10
99.75
20
-13.1
40
1
0
CIRCLE
8
0
10
118.75
20
-13.1
40
1
0
CIRCLE
8
0
10
137.75
20
-13.1
40
1
0
CIRCLE
8
0
10
156.75
20
-13.1
40
1
0
CIRCLE
8
0
10
180.5
20
-13.1
40
1
0
CIRCLE
8
0
10
-4.75
20
-32.1
40
1
0
CIRCLE
8
0
10
14.25
20
-32.1
40
1
0
CIRCLE
8
0
10
33.25
20
-32.1
40
1
0
CIRCLE
8
0
10
52.25
20
-32.1
40
1
0
CIRCLE
8
0
10
71.25
20
-32.1
40
1
0
CIRCLE
8
0
10
90.25
20
-32.1
40
1
0
CIRCLE
8
0
10
109.25
20
-32.1
40
1
0
CIRCLE
8
0
10
128.25
20
-32.1
40
1
0
CIRCLE
8
0
10
147.25
20
-32.1
40
1
0
CIRCLE
8
0
10
166.25
20
-32.1
40
1
0
CIRCLE
8
0
10
185.25
20
-32.1
40
1
0
CIRCLE
8
0
10
37.5
20
-52.05
40
1
0
CIRCLE
8
0
10
61.75
20
-51.1
40
1
0
CIRCLE
8
0
10
80.75
20
-55.85
40
1
0
CIRCLE
8
0
10
99.75
20
-55.85
40
1
0
CIRCLE
8
0
10
118.75
20
-51.1
40
1
0
CIRCLE
8
0
10
143
20
-52.05
40
1
0
CIRCLE
8
0
10
-4.75
20
12.4
40
1.225
0
CIRCLE
8
0
10
90.25
20
12.4
40
1.225
0
CIRCLE
8
0
10
185.25
20
12.4
40
1.225
0
CIRCLE
8
0
10
27.25
20
-58.375
40
1.225
0
CIRCLE
8
0
10
153.25
20
-58.375
40
1.225
0
CIRCLE
8
0
10
-4.75
20
12.4
40
2.25
0
CIRCLE
8
0
10
90.25
20
12.4
40
2.25
0
CIRCLE
8
0
10
185.25
20
12.4
40
2.25
0
CIRCLE
8
0
10
27.25
20
-58.375
40
2.25
0
CIRCLE
8
0
10
153.25
20
-58.375
40
2.25
0
LINE
8
0
10
-10.87
20
-50.24
11
20.13
21
-50.24
0
LINE
8
0
10
20.13
20
-50.24
11
20.13
21
-47.24
0
LINE
8
0
10
20.13
20
-47.24
11
-10.87
21
-47.24
0
LINE
8
0
10
-10.87
20
-47.24
11
-10.87
21
-50.24
0
LINE
8
0
10
-10.87
20
-65.48
11
20.13
21
-65.48
0
LINE
8
0
10
20.13
20
-65.48
11
20.13
21
-62.48
0
LINE
8
0
10
20.13
20
-62.48
11
-10.87
21
-62.48
0
LINE
8
0
10
-10.87
20
-62.48
11
-10.87
21
-65.48
0
ENDSEC
0
EOF