0
SECTION
2
HEADER
9
$INSUNITS
70
4
0
ENDSEC
0
SECTION
2
TABLES
0
TABLE
2
LTYPE
0
LTYPE
72
65
70
64
2
CONTINUOUS
3
______
73
0
40
0
0
ENDTAB
0
TABLE
2
LAYER
0
ENDTAB
0
ENDSEC
0
SECTION
2
ENTITIES
0
CIRCLE
8
0
10
0
20
0
40
2.8
0
CIRCLE
8
0
10
23.75
20
0
40
2.8
0
CIRCLE
8
0
10
42.75
20
0
40
2.8
0
CIRCLE
8
0
10
61.75
20
0
40
2.8
0
CIRCLE
8
0
10
80.75
20
0
40
2.8
0
CIRCLE
8
0
10
99.75
20
0
40
2.8
0
CIRCLE
8
0
10
118.75
20
0
40
2.8
0
CIRCLE
8
0
10
137.75
20
0
40
2.8
0
CIRCLE
8
0
10
156.75
20
0
40
2.8
0
CIRCLE
8
0
10
180.5
20
0
40
2.8
0
CIRCLE
8
0
10
0
20
-19
40
2.8
0
CIRCLE
8
0
10
23.75
20
-19
40
2.8
0
CIRCLE
8
0
10
42.75
20
-19
40
2.8
0
CIRCLE
8
0
10
61.75
20
-19
40
2.8
0
CIRCLE
8
0
10
80.75
20
-19
40
2.8
0
CIRCLE
8
0
10
99.75
20
-19
40
2.8
0
CIRCLE
8
0
10
118.75
20
-19
40
2.8
0
CIRCLE
8
0
10
137.75
20
-19
40
2.8
0
CIRCLE
8
0
10
156.75
20
-19
40
2.8
0
CIRCLE
8
0
10
180.5
20
-19
40
2.8
0
CIRCLE
8
0
10
-4.75
20
-38
40
2.8
0
CIRCLE
8
0
10
14.25
20
-38
40
2.8
0
CIRCLE
8
0
10
33.25
20
-38
40
2.8
0
CIRCLE
8
0
10
52.25
20
-38
40
2.8
0
CIRCLE
8
0
10
71.25
20
-38
40
2.8
0
CIRCLE
8
0
10
90.25
20
-38
40
2.8
0
CIRCLE
8
0
10
109.25
20
-38
40
2.8
0
CIRCLE
8
0
10
128.25
20
-38
40
2.8
0
CIRCLE
8
0
10
147.25
20
-38
40
2.8
0
CIRCLE
8
0
10
166.25
20
-38
40
2.8
0
CIRCLE
8
0
10
185.25
20
-38
40
2.8
0
CIRCLE
8
0
10
37.5
20
-57.95
40
2.8
0
CIRCLE
8
0
10
61.75
20
-57
40
2.8
0
CIRCLE
8
0
10
80.75
20
-61.75
40
2.8
0
CIRCLE
8
0
10
99.75
20
-61.75
40
2.8
0
CIRCLE
8
0
10
118.75
20
-57
40
2.8
0
CIRCLE
8
0
10
143
20
-57.95
40
2.8
0
ENDSEC
0
EOF