0
SECTION
2
HEADER
9
$INSUNITS
70
4
0
ENDSEC
0
SECTION
2
TABLES
0
TABLE
2
LTYPE
0
LTYPE
72
65
70
64
2
CONTINUOUS
3
______
73
0
40
0
0
ENDTAB
0
TABLE
2
LAYER
0
ENDTAB
0
ENDSEC
0
SECTION
2
ENTITIES
0
LINE
8
0
10
194.8255
20
-65.75
11
194.8255
21
12.575
0
LINE
8
0
10
194.8255
20
12.575
11
-14.3255
21
12.575
0
LINE
8
0
10
-14.3255
20
-65.75
11
-14.3255
21
12.575
0
LINE
8
0
10
-14.3255
20
-65.75
11
73.75
21
-65.75
0
LINE
8
0
10
106.75
20
-65.75
11
194.8255
21
-65.75
0
LINE
8
0
10
73.75
20
-68.75
11
106.75
21
-68.75
0
LINE
8
0
10
106.75
20
-68.75
11
106.75
21
-65.75
0
LINE
8
0
10
73.75
20
-65.75
11
73.75
21
-68.75
0
LINE
8
0
10
-13.95
20
-9.2
11
13.95
21
-9.2
0
LINE
8
0
10
-13.95
20
9.2
11
13.95
21
9.2
0
LINE
8
0
10
14.55
20
-9.2
11
32.95
21
-9.2
0
LINE
8
0
10
32.95
20
-9.2
11
32.95
21
9.2
0
LINE
8
0
10
32.95
20
9.2
11
14.55
21
9.2
0
LINE
8
0
10
14.55
20
9.2
11
14.55
21
-9.2
0
LINE
8
0
10
33.55
20
-9.2
11
51.95
21
-9.2
0
LINE
8
0
10
51.95
20
-9.2
11
51.95
21
9.2
0
LINE
8
0
10
51.95
20
9.2
11
33.55
21
9.2
0
LINE
8
0
10
33.55
20
9.2
11
33.55
21
-9.2
0
LINE
8
0
10
52.55
20
-9.2
11
70.95
21
-9.2
0
LINE
8
0
10
70.95
20
-9.2
11
70.95
21
9.2
0
LINE
8
0
10
70.95
20
9.2
11
52.55
21
9.2
0
LINE
8
0
10
52.55
20
9.2
11
52.55
21
-9.2
0
LINE
8
0
10
71.55
20
-9.2
11
89.95
21
-9.2
0
LINE
8
0
10
89.95
20
-9.2
11
89.95
21
9.2
0
LINE
8
0
10
89.95
20
9.2
11
71.55
21
9.2
0
LINE
8
0
10
71.55
20
9.2
11
71.55
21
-9.2
0
LINE
8
0
10
90.55
20
-9.2
11
108.95
21
-9.2
0
LINE
8
0
10
108.95
20
-9.2
11
108.95
21
9.2
0
LINE
8
0
10
108.95
20
9.2
11
90.55
21
9.2
0
LINE
8
0
10
90.55
20
9.2
11
90.55
21
-9.2
0
LINE
8
0
10
109.55
20
-9.2
11
127.95
21
-9.2
0
LINE
8
0
10
127.95
20
-9.2
11
127.95
21
9.2
0
LINE
8
0
10
127.95
20
9.2
11
109.55
21
9.2
0
LINE
8
0
10
109.55
20
9.2
11
109.55
21
-9.2
0
LINE
8
0
10
128.55
20
-9.2
11
146.95
21
-9.2
0
LINE
8
0
10
146.95
20
-9.2
11
146.95
21
9.2
0
LINE
8
0
10
146.95
20
9.2
11
128.55
21
9.2
0
LINE
8
0
10
128.55
20
9.2
11
128.55
21
-9.2
0
LINE
8
0
10
147.55
20
-9.2
11
165.95
21
-9.2
0
LINE
8
0
10
165.95
20
-9.2
11
165.95
21
9.2
0
LINE
8
0
10
165.95
20
9.2
11
147.55
21
9.2
0
LINE
8
0
10
147.55
20
9.2
11
147.55
21
-9.2
0
LINE
8
0
10
166.55
20
-9.2
11
194.45
21
-9.2
0
LINE
8
0
10
166.55
20
9.2
11
194.45
21
9.2
0
LINE
8
0
10
-13.95
20
-28.2
11
13.95
21
-28.2
0
LINE
8
0
10
-13.95
20
-9.8
11
13.95
21
-9.8
0
LINE
8
0
10
14.55
20
-28.2
11
32.95
21
-28.2
0
LINE
8
0
10
32.95
20
-28.2
11
32.95
21
-9.8
0
LINE
8
0
10
32.95
20
-9.8
11
14.55
21
-9.8
0
LINE
8
0
10
14.55
20
-9.8
11
14.55
21
-28.2
0
LINE
8
0
10
33.55
20
-28.2
11
51.95
21
-28.2
0
LINE
8
0
10
51.95
20
-28.2
11
51.95
21
-9.8
0
LINE
8
0
10
51.95
20
-9.8
11
33.55
21
-9.8
0
LINE
8
0
10
33.55
20
-9.8
11
33.55
21
-28.2
0
LINE
8
0
10
52.55
20
-28.2
11
70.95
21
-28.2
0
LINE
8
0
10
70.95
20
-28.2
11
70.95
21
-9.8
0
LINE
8
0
10
70.95
20
-9.8
11
52.55
21
-9.8
0
LINE
8
0
10
52.55
20
-9.8
11
52.55
21
-28.2
0
LINE
8
0
10
71.55
20
-28.2
11
89.95
21
-28.2
0
LINE
8
0
10
89.95
20
-28.2
11
89.95
21
-9.8
0
LINE
8
0
10
89.95
20
-9.8
11
71.55
21
-9.8
0
LINE
8
0
10
71.55
20
-9.8
11
71.55
21
-28.2
0
LINE
8
0
10
90.55
20
-28.2
11
108.95
21
-28.2
0
LINE
8
0
10
108.95
20
-28.2
11
108.95
21
-9.8
0
LINE
8
0
10
108.95
20
-9.8
11
90.55
21
-9.8
0
LINE
8
0
10
90.55
20
-9.8
11
90.55
21
-28.2
0
LINE
8
0
10
109.55
20
-28.2
11
127.95
21
-28.2
0
LINE
8
0
10
127.95
20
-28.2
11
127.95
21
-9.8
0
LINE
8
0
10
127.95
20
-9.8
11
109.55
21
-9.8
0
LINE
8
0
10
109.55
20
-9.8
11
109.55
21
-28.2
0
LINE
8
0
10
128.55
20
-28.2
11
146.95
21
-28.2
0
LINE
8
0
10
146.95
20
-28.2
11
146.95
21
-9.8
0
LINE
8
0
10
146.95
20
-9.8
11
128.55
21
-9.8
0
LINE
8
0
10
128.55
20
-9.8
11
128.55
21
-28.2
0
LINE
8
0
10
147.55
20
-28.2
11
165.95
21
-28.2
0
LINE
8
0
10
165.95
20
-28.2
11
165.95
21
-9.8
0
LINE
8
0
10
165.95
20
-9.8
11
147.55
21
-9.8
0
LINE
8
0
10
147.55
20
-9.8
11
147.55
21
-28.2
0
LINE
8
0
10
166.55
20
-28.2
11
194.45
21
-28.2
0
LINE
8
0
10
166.55
20
-9.8
11
194.45
21
-9.8
0
LINE
8
0
10
-13.95
20
-47.2
11
4.45
21
-47.2
0
LINE
8
0
10
4.45
20
-47.2
11
4.45
21
-28.8
0
LINE
8
0
10
4.45
20
-28.8
11
-13.95
21
-28.8
0
LINE
8
0
10
-13.95
20
-28.8
11
-13.95
21
-47.2
0
LINE
8
0
10
5.05
20
-47.2
11
23.45
21
-47.2
0
LINE
8
0
10
23.45
20
-47.2
11
23.45
21
-28.8
0
LINE
8
0
10
23.45
20
-28.8
11
5.05
21
-28.8
0
LINE
8
0
10
5.05
20
-28.8
11
5.05
21
-47.2
0
LINE
8
0
10
24.05
20
-47.2
11
42.45
21
-47.2
0
LINE
8
0
10
42.45
20
-47.2
11
42.45
21
-28.8
0
LINE
8
0
10
42.45
20
-28.8
11
24.05
21
-28.8
0
LINE
8
0
10
24.05
20
-28.8
11
24.05
21
-47.2
0
LINE
8
0
10
43.05
20
-47.2
11
61.45
21
-47.2
0
LINE
8
0
10
61.45
20
-47.2
11
61.45
21
-28.8
0
LINE
8
0
10
61.45
20
-28.8
11
43.05
21
-28.8
0
LINE
8
0
10
43.05
20
-28.8
11
43.05
21
-47.2
0
LINE
8
0
10
62.05
20
-47.2
11
80.45
21
-47.2
0
LINE
8
0
10
80.45
20
-47.2
11
80.45
21
-28.8
0
LINE
8
0
10
80.45
20
-28.8
11
62.05
21
-28.8
0
LINE
8
0
10
62.05
20
-28.8
11
62.05
21
-47.2
0
LINE
8
0
10
81.05
20
-47.2
11
99.45
21
-47.2
0
LINE
8
0
10
99.45
20
-47.2
11
99.45
21
-28.8
0
LINE
8
0
10
99.45
20
-28.8
11
81.05
21
-28.8
0
LINE
8
0
10
81.05
20
-28.8
11
81.05
21
-47.2
0
LINE
8
0
10
100.05
20
-47.2
11
118.45
21
-47.2
0
LINE
8
0
10
118.45
20
-47.2
11
118.45
21
-28.8
0
LINE
8
0
10
118.45
20
-28.8
11
100.05
21
-28.8
0
LINE
8
0
10
100.05
20
-28.8
11
100.05
21
-47.2
0
LINE
8
0
10
119.05
20
-47.2
11
137.45
21
-47.2
0
LINE
8
0
10
137.45
20
-47.2
11
137.45
21
-28.8
0
LINE
8
0
10
137.45
20
-28.8
11
119.05
21
-28.8
0
LINE
8
0
10
119.05
20
-28.8
11
119.05
21
-47.2
0
LINE
8
0
10
138.05
20
-47.2
11
156.45
21
-47.2
0
LINE
8
0
10
156.45
20
-47.2
11
156.45
21
-28.8
0
LINE
8
0
10
156.45
20
-28.8
11
138.05
21
-28.8
0
LINE
8
0
10
138.05
20
-28.8
11
138.05
21
-47.2
0
LINE
8
0
10
157.05
20
-47.2
11
175.45
21
-47.2
0
LINE
8
0
10
175.45
20
-47.2
11
175.45
21
-28.8
0
LINE
8
0
10
175.45
20
-28.8
11
157.05
21
-28.8
0
LINE
8
0
10
157.05
20
-28.8
11
157.05
21
-47.2
0
LINE
8
0
10
176.05
20
-47.2
11
194.45
21
-47.2
0
LINE
8
0
10
194.45
20
-47.2
11
194.45
21
-28.8
0
LINE
8
0
10
194.45
20
-28.8
11
176.05
21
-28.8
0
LINE
8
0
10
176.05
20
-28.8
11
176.05
21
-47.2
0
LINE
8
0
10
52.55
20
-66.2
11
70.95
21
-66.2
0
LINE
8
0
10
70.95
20
-66.2
11
70.95
21
-47.8
0
LINE
8
0
10
70.95
20
-47.8
11
52.55
21
-47.8
0
LINE
8
0
10
52.55
20
-47.8
11
52.55
21
-66.2
0
LINE
8
0
10
71.55
20
-70.95
11
89.95
21
-70.95
0
LINE
8
0
10
89.95
20
-70.95
11
89.95
21
-52.55
0
LINE
8
0
10
89.95
20
-52.55
11
71.55
21
-52.55
0
LINE
8
0
10
71.55
20
-52.55
11
71.55
21
-70.95
0
LINE
8
0
10
90.55
20
-70.95
11
108.95
21
-70.95
0
LINE
8
0
10
108.95
20
-70.95
11
108.95
21
-52.55
0
LINE
8
0
10
108.95
20
-52.55
11
90.55
21
-52.55
0
LINE
8
0
10
90.55
20
-52.55
11
90.55
21
-70.95
0
LINE
8
0
10
109.55
20
-66.2
11
127.95
21
-66.2
0
LINE
8
0
10
127.95
20
-66.2
11
127.95
21
-47.8
0
LINE
8
0
10
127.95
20
-47.8
11
109.55
21
-47.8
0
LINE
8
0
10
109.55
20
-47.8
11
109.55
21
-66.2
0
LINE
8
0
10
13.95
20
-9.2
11
13.95
21
9.2
0
LINE
8
0
10
-13.95
20
9.2
11
-13.95
21
-9.2
0
LINE
8
0
10
194.45
20
-9.2
11
194.45
21
9.2
0
LINE
8
0
10
166.55
20
9.2
11
166.55
21
-9.2
0
LINE
8
0
10
13.95
20
-28.2
11
13.95
21
-9.8
0
LINE
8
0
10
-13.95
20
-9.8
11
-13.95
21
-28.2
0
LINE
8
0
10
194.45
20
-28.2
11
194.45
21
-9.8
0
LINE
8
0
10
166.55
20
-9.8
11
166.55
21
-28.2
0
LINE
8
0
10
27.75
20
-67.7
11
47.25
21
-67.7
0
LINE
8
0
10
47.25
20
-67.7
11
47.25
21
-48.2
0
LINE
8
0
10
47.25
20
-48.2
11
27.75
21
-48.2
0
LINE
8
0
10
27.75
20
-48.2
11
27.75
21
-67.7
0
LINE
8
0
10
133.25
20
-67.7
11
152.75
21
-67.7
0
LINE
8
0
10
152.75
20
-67.7
11
152.75
21
-48.2
0
LINE
8
0
10
152.75
20
-48.2
11
133.25
21
-48.2
0
LINE
8
0
10
133.25
20
-48.2
11
133.25
21
-67.7
0
ENDSEC
0
EOF