0
SECTION
2
HEADER
9
$INSUNITS
70
4
0
ENDSEC
0
SECTION
2
TABLES
0
TABLE
2
LTYPE
0
LTYPE
72
65
70
64
2
CONTINUOUS
3
______
73
0
40
0
0
ENDTAB
0
TABLE
2
LAYER
0
ENDTAB
0
ENDSEC
0
SECTION
2
ENTITIES
0
LINE
8
0
10
-7
20
-7
11
7
21
-7
0
LINE
8
0
10
7
20
-7
11
7
21
7
0
LINE
8
0
10
7
20
7
11
-7
21
7
0
LINE
8
0
10
-7
20
7
11
-7
21
-7
0
LINE
8
0
10
16.75
20
-7
11
30.75
21
-7
0
LINE
8
0
10
30.75
20
-7
11
30.75
21
7
0
LINE
8
0
10
30.75
20
7
11
16.75
21
7
0
LINE
8
0
10
16.75
20
7
11
16.75
21
-7
0
LINE
8
0
10
35.75
20
-7
11
49.75
21
-7
0
LINE
8
0
10
49.75
20
-7
11
49.75
21
7
0
LINE
8
0
10
49.75
20
7
11
35.75
21
7
0
LINE
8
0
10
35.75
20
7
11
35.75
21
-7
0
LINE
8
0
10
54.75
20
-7
11
68.75
21
-7
0
LINE
8
0
10
68.75
20
-7
11
68.75
21
7
0
LINE
8
0
10
68.75
20
7
11
54.75
21
7
0
LINE
8
0
10
54.75
20
7
11
54.75
21
-7
0
LINE
8
0
10
73.75
20
-7
11
87.75
21
-7
0
LINE
8
0
10
87.75
20
-7
11
87.75
21
7
0
LINE
8
0
10
87.75
20
7
11
73.75
21
7
0
LINE
8
0
10
73.75
20
7
11
73.75
21
-7
0
LINE
8
0
10
92.75
20
-7
11
106.75
21
-7
0
LINE
8
0
10
106.75
20
-7
11
106.75
21
7
0
LINE
8
0
10
106.75
20
7
11
92.75
21
7
0
LINE
8
0
10
92.75
20
7
11
92.75
21
-7
0
LINE
8
0
10
111.75
20
-7
11
125.75
21
-7
0
LINE
8
0
10
125.75
20
-7
11
125.75
21
7
0
LINE
8
0
10
125.75
20
7
11
111.75
21
7
0
LINE
8
0
10
111.75
20
7
11
111.75
21
-7
0
LINE
8
0
10
130.75
20
-7
11
144.75
21
-7
0
LINE
8
0
10
144.75
20
-7
11
144.75
21
7
0
LINE
8
0
10
144.75
20
7
11
130.75
21
7
0
LINE
8
0
10
130.75
20
7
11
130.75
21
-7
0
LINE
8
0
10
149.75
20
-7
11
163.75
21
-7
0
LINE
8
0
10
163.75
20
-7
11
163.75
21
7
0
LINE
8
0
10
163.75
20
7
11
149.75
21
7
0
LINE
8
0
10
149.75
20
7
11
149.75
21
-7
0
LINE
8
0
10
173.5
20
-7
11
187.5
21
-7
0
LINE
8
0
10
187.5
20
-7
11
187.5
21
7
0
LINE
8
0
10
187.5
20
7
11
173.5
21
7
0
LINE
8
0
10
173.5
20
7
11
173.5
21
-7
0
LINE
8
0
10
-7
20
-26
11
7
21
-26
0
LINE
8
0
10
7
20
-26
11
7
21
-12
0
LINE
8
0
10
7
20
-12
11
-7
21
-12
0
LINE
8
0
10
-7
20
-12
11
-7
21
-26
0
LINE
8
0
10
16.75
20
-26
11
30.75
21
-26
0
LINE
8
0
10
30.75
20
-26
11
30.75
21
-12
0
LINE
8
0
10
30.75
20
-12
11
16.75
21
-12
0
LINE
8
0
10
16.75
20
-12
11
16.75
21
-26
0
LINE
8
0
10
35.75
20
-26
11
49.75
21
-26
0
LINE
8
0
10
49.75
20
-26
11
49.75
21
-12
0
LINE
8
0
10
49.75
20
-12
11
35.75
21
-12
0
LINE
8
0
10
35.75
20
-12
11
35.75
21
-26
0
LINE
8
0
10
54.75
20
-26
11
68.75
21
-26
0
LINE
8
0
10
68.75
20
-26
11
68.75
21
-12
0
LINE
8
0
10
68.75
20
-12
11
54.75
21
-12
0
LINE
8
0
10
54.75
20
-12
11
54.75
21
-26
0
LINE
8
0
10
73.75
20
-26
11
87.75
21
-26
0
LINE
8
0
10
87.75
20
-26
11
87.75
21
-12
0
LINE
8
0
10
87.75
20
-12
11
73.75
21
-12
0
LINE
8
0
10
73.75
20
-12
11
73.75
21
-26
0
LINE
8
0
10
92.75
20
-26
11
106.75
21
-26
0
LINE
8
0
10
106.75
20
-26
11
106.75
21
-12
0
LINE
8
0
10
106.75
20
-12
11
92.75
21
-12
0
LINE
8
0
10
92.75
20
-12
11
92.75
21
-26
0
LINE
8
0
10
111.75
20
-26
11
125.75
21
-26
0
LINE
8
0
10
125.75
20
-26
11
125.75
21
-12
0
LINE
8
0
10
125.75
20
-12
11
111.75
21
-12
0
LINE
8
0
10
111.75
20
-12
11
111.75
21
-26
0
LINE
8
0
10
130.75
20
-26
11
144.75
21
-26
0
LINE
8
0
10
144.75
20
-26
11
144.75
21
-12
0
LINE
8
0
10
144.75
20
-12
11
130.75
21
-12
0
LINE
8
0
10
130.75
20
-12
11
130.75
21
-26
0
LINE
8
0
10
149.75
20
-26
11
163.75
21
-26
0
LINE
8
0
10
163.75
20
-26
11
163.75
21
-12
0
LINE
8
0
10
163.75
20
-12
11
149.75
21
-12
0
LINE
8
0
10
149.75
20
-12
11
149.75
21
-26
0
LINE
8
0
10
173.5
20
-26
11
187.5
21
-26
0
LINE
8
0
10
187.5
20
-26
11
187.5
21
-12
0
LINE
8
0
10
187.5
20
-12
11
173.5
21
-12
0
LINE
8
0
10
173.5
20
-12
11
173.5
21
-26
0
LINE
8
0
10
-11.75
20
-45
11
2.25
21
-45
0
LINE
8
0
10
2.25
20
-45
11
2.25
21
-31
0
LINE
8
0
10
2.25
20
-31
11
-11.75
21
-31
0
LINE
8
0
10
-11.75
20
-31
11
-11.75
21
-45
0
LINE
8
0
10
7.25
20
-45
11
21.25
21
-45
0
LINE
8
0
10
21.25
20
-45
11
21.25
21
-31
0
LINE
8
0
10
21.25
20
-31
11
7.25
21
-31
0
LINE
8
0
10
7.25
20
-31
11
7.25
21
-45
0
LINE
8
0
10
26.25
20
-45
11
40.25
21
-45
0
LINE
8
0
10
40.25
20
-45
11
40.25
21
-31
0
LINE
8
0
10
40.25
20
-31
11
26.25
21
-31
0
LINE
8
0
10
26.25
20
-31
11
26.25
21
-45
0
LINE
8
0
10
45.25
20
-45
11
59.25
21
-45
0
LINE
8
0
10
59.25
20
-45
11
59.25
21
-31
0
LINE
8
0
10
59.25
20
-31
11
45.25
21
-31
0
LINE
8
0
10
45.25
20
-31
11
45.25
21
-45
0
LINE
8
0
10
64.25
20
-45
11
78.25
21
-45
0
LINE
8
0
10
78.25
20
-45
11
78.25
21
-31
0
LINE
8
0
10
78.25
20
-31
11
64.25
21
-31
0
LINE
8
0
10
64.25
20
-31
11
64.25
21
-45
0
LINE
8
0
10
83.25
20
-45
11
97.25
21
-45
0
LINE
8
0
10
97.25
20
-45
11
97.25
21
-31
0
LINE
8
0
10
97.25
20
-31
11
83.25
21
-31
0
LINE
8
0
10
83.25
20
-31
11
83.25
21
-45
0
LINE
8
0
10
102.25
20
-45
11
116.25
21
-45
0
LINE
8
0
10
116.25
20
-45
11
116.25
21
-31
0
LINE
8
0
10
116.25
20
-31
11
102.25
21
-31
0
LINE
8
0
10
102.25
20
-31
11
102.25
21
-45
0
LINE
8
0
10
121.25
20
-45
11
135.25
21
-45
0
LINE
8
0
10
135.25
20
-45
11
135.25
21
-31
0
LINE
8
0
10
135.25
20
-31
11
121.25
21
-31
0
LINE
8
0
10
121.25
20
-31
11
121.25
21
-45
0
LINE
8
0
10
140.25
20
-45
11
154.25
21
-45
0
LINE
8
0
10
154.25
20
-45
11
154.25
21
-31
0
LINE
8
0
10
154.25
20
-31
11
140.25
21
-31
0
LINE
8
0
10
140.25
20
-31
11
140.25
21
-45
0
LINE
8
0
10
159.25
20
-45
11
173.25
21
-45
0
LINE
8
0
10
173.25
20
-45
11
173.25
21
-31
0
LINE
8
0
10
173.25
20
-31
11
159.25
21
-31
0
LINE
8
0
10
159.25
20
-31
11
159.25
21
-45
0
LINE
8
0
10
178.25
20
-45
11
192.25
21
-45
0
LINE
8
0
10
192.25
20
-45
11
192.25
21
-31
0
LINE
8
0
10
192.25
20
-31
11
178.25
21
-31
0
LINE
8
0
10
178.25
20
-31
11
178.25
21
-45
0
LINE
8
0
10
30.5
20
-64.95
11
44.5
21
-64.95
0
LINE
8
0
10
44.5
20
-64.95
11
44.5
21
-50.95
0
LINE
8
0
10
44.5
20
-50.95
11
30.5
21
-50.95
0
LINE
8
0
10
30.5
20
-50.95
11
30.5
21
-64.95
0
LINE
8
0
10
54.75
20
-64
11
68.75
21
-64
0
LINE
8
0
10
68.75
20
-64
11
68.75
21
-50
0
LINE
8
0
10
68.75
20
-50
11
54.75
21
-50
0
LINE
8
0
10
54.75
20
-50
11
54.75
21
-64
0
LINE
8
0
10
73.75
20
-68.75
11
87.75
21
-68.75
0
LINE
8
0
10
87.75
20
-68.75
11
87.75
21
-54.75
0
LINE
8
0
10
87.75
20
-54.75
11
73.75
21
-54.75
0
LINE
8
0
10
73.75
20
-54.75
11
73.75
21
-68.75
0
LINE
8
0
10
92.75
20
-68.75
11
106.75
21
-68.75
0
LINE
8
0
10
106.75
20
-68.75
11
106.75
21
-54.75
0
LINE
8
0
10
106.75
20
-54.75
11
92.75
21
-54.75
0
LINE
8
0
10
92.75
20
-54.75
11
92.75
21
-68.75
0
LINE
8
0
10
111.75
20
-64
11
125.75
21
-64
0
LINE
8
0
10
125.75
20
-64
11
125.75
21
-50
0
LINE
8
0
10
125.75
20
-50
11
111.75
21
-50
0
LINE
8
0
10
111.75
20
-50
11
111.75
21
-64
0
LINE
8
0
10
136
20
-64.95
11
150
21
-64.95
0
LINE
8
0
10
150
20
-64.95
11
150
21
-50.95
0
LINE
8
0
10
150
20
-50.95
11
136
21
-50.95
0
LINE
8
0
10
136
20
-50.95
11
136
21
-64.95
0
ENDSEC
0
EOF